<svg xmlns="http://www.w3.org/2000/svg" style="display: none;">
  
    <symbol id="icon-phone" viewBox="0 0 512 512">
      <path d="m493 25l-104-24c-11-3-22 3-27 14l-48 112c-4 9-1 21 7 28l60 49c-36 77-98 141-177 177l-49-60c-7-9-19-11-28-7l-112 48c-11 5-17 16-9 27l24 104c-3 11 7 19 18 19 256 0 464-207 464-464 0-11-8-21-19-23z"/>
    </symbol>

    <symbol id="icon-phone-flipped" viewBox="0 0 512 512">
      <path d="M353.188,252.052c-23.51,0-46.594-3.677-68.469-10.906c-10.719-3.656-23.896-0.302-30.438,6.417l-43.177,32.594
			c-50.073-26.729-80.917-57.563-107.281-107.26l31.635-42.052c8.219-8.208,11.167-20.198,7.635-31.448
			c-7.26-21.99-10.948-45.063-10.948-68.583C132.146,13.823,118.323,0,101.333,0H30.813C13.823,0,0,13.823,0,30.813
			C0,225.563,158.438,384,353.188,384c16.99,0,30.813-13.823,30.813-30.813v-70.323C384,265.875,370.177,252.052,353.188,252.052z"
			/>
    </symbol>
  
    <symbol id="icon-linkedin" viewBox="0 0 512 512">
      <path d="M416 32H31.9C14.3 32 0 46.5 0 64.3v383.4C0 465.5 14.3 480 31.9 480H416c17.6 0 32-14.5 32-32.3V64.3c0-17.8-14.4-32.3-32-32.3zM135.4 416H69V202.2h66.5V416zm-33.2-243c-21.3 0-38.5-17.3-38.5-38.5S80.9 96 102.2 96c21.2 0 38.5 17.3 38.5 38.5 0 21.3-17.2 38.5-38.5 38.5zm282.1 243h-66.4V312c0-24.8-.5-56.7-34.5-56.7-34.6 0-39.9 27-39.9 54.9V416h-66.4V202.2h63.7v29.2h.9c8.9-16.8 30.6-34.5 62.9-34.5 67.2 0 79.7 44.3 79.7 101.9V416z"></path>
    </symbol>
  
    <symbol id="icon-facebook" viewBox="0 0 512 512">
      <path d="m480 57l0 398c0 14-11 25-25 25l-114 0 0-173 58 0 9-68-67 0 0-43c0-20 5-33 34-33l35 0 0-61c-6 0-27-2-52-2-51 0-87 31-87 89l0 50-58 0 0 68 58 0 0 173-214 0c-14 0-25-11-25-25l0-398c0-14 11-25 25-25l398 0c14 0 25 11 25 25z"/>
    </symbol>

    <symbol id="icon-external" viewBox="0 0 32 32">
      <path d=" M4 4 L12 4 L12 8 L8 8 L8 24 L24 24 L24 20 L28 20 L28 28 L4 28 z M16 4 L28 4 L28 16 L24 12 L16 20 L12 16 L20 8z "/>
    </symbol>

    <symbol viewBox="0 0 504 504" id="icon-pinterest">
      <path d="M377.6 0H126C56.8 0 0 56.8 0 126.4V378c0 69.2 56.8 126 126 126h251.6c69.6 0 126.4-56.8 126.4-126.4V126.4C504 56.8 447.2 0 377.6 0zM277.2 322c-20 0-39.2-10.4-45.6-22.4 0 0-10.8 41.6-13.2 49.6-8 28.4-32 56.8-33.6 59.2-1.2 1.6-4 1.2-4.4-1.2-.4-3.6-6.4-39.6.4-68.8 3.6-14.8 24-98.4 24-98.4s-6-11.6-6-28.4c0-26.8 16-46.8 36-46.8 16.8 0 25.2 12.4 25.2 27.2 0 16.4-10.8 41.2-16.4 64-4.8 19.2 10 34.8 29.6 34.8 35.2 0 59.2-44 59.2-96 0-39.6-27.6-69.2-77.6-69.2-56.4 0-92 40.8-92 86.4 0 15.6 4.8 26.8 12.4 35.6 3.6 4 4 5.6 2.8 10-.8 3.2-2.8 11.2-4 14.4-1.2 4.4-5.2 6.4-9.2 4.4-26-10.4-38-38-38-69.2 0-51.2 44.8-112.8 133.2-112.8 71.2 0 118 50 118 103.6-.4 71.2-40.8 124-100.8 124z"></path>
    </symbol>
  
    <symbol id="icon-google-plus" viewBox="0 0 512 512">
      <path d="m256 8c-137 0-248 111-248 248 0 137 111 248 248 248 137 0 248-111 248-248 0-137-111-248-248-248z m-71 372c-68 0-124-55-124-124 0-68 56-124 124-124 32 0 60 11 83 32l-33 33c-13-13-32-19-50-19-43 0-77 35-77 78 0 43 34 78 77 78 33 0 65-19 70-53l-70 0 0-43 117 0c2 7 2 14 2 21 0 71-47 121-119 121z m231-106l0 35-36 0 0-35-35 0 0-36 35 0 0-35 36 0 0 35 35 0 0 36z"/>
    </symbol>
  
    <symbol id="icon-youtube" viewBox="0 0 512 512">
      <path d="m489 139c-6-21-22-38-43-43-38-11-190-11-190-11 0 0-152 0-190 11-21 5-37 22-43 43-10 38-10 117-10 117 0 0 0 80 10 118 6 21 22 37 43 42 38 11 190 11 190 11 0 0 152 0 190-11 21-5 37-21 43-42 10-38 10-118 10-118 0 0 0-79-10-117z m-283 190l0-145 127 72z"/>
    </symbol>
  
    <symbol id="icon-twitter-square" viewBox="0 0 512 512">
      <path d="m432 32l-352 0c-26 0-48 22-48 48l0 352c0 27 22 48 48 48l352 0c27 0 48-21 48-48l0-352c0-26-21-48-48-48z m-49 159c0 3 2 6 2 8 0 87-66 187-186 187-38 0-72-11-101-29 5 6 10 8 16 8 30 0 59-11 81-28-29-1-53-20-61-46 10 2 19 2 29-1-30-6-52-33-52-65l0 0c9 5 19 8 29 8-18-12-29-33-29-55 0-12 3-23 9-33 32 40 81 66 135 69-9-45 24-81 64-81 19 0 36 8 48 21 15-3 29-8 42-16-5 15-15 28-29 36 13-1 26-5 38-10-9 13-20 25-33 34z"/>
    </symbol>

    <symbol id="icon-bars" viewBox="0 0 448 512">
      <path d="M16 132h416c8.837 0 16-7.163 16-16V76c0-8.837-7.163-16-16-16H16C7.163 60 0 67.163 0 76v40c0 8.837 7.163 16 16 16zm0 160h416c8.837 0 16-7.163 16-16v-40c0-8.837-7.163-16-16-16H16c-8.837 0-16 7.163-16 16v40c0 8.837 7.163 16 16 16zm0 160h416c8.837 0 16-7.163 16-16v-40c0-8.837-7.163-16-16-16H16c-8.837 0-16 7.163-16 16v40c0 8.837 7.163 16 16 16z"/>
    </symbol>
  
    <symbol id="icon-ellipsis-h" viewBox="0 0 512 512">
      <path d="m304 256c0 27-21 48-48 48-26 0-48-21-48-48 0-26 22-48 48-48 27 0 48 22 48 48z m120-48c-26 0-48 22-48 48 0 27 22 48 48 48 27 0 48-21 48-48 0-26-21-48-48-48z m-336 0c-26 0-48 22-48 48 0 27 22 48 48 48 27 0 48-21 48-48 0-26-21-48-48-48z"/>
    </symbol>
  
    <symbol id="icon-angle-down" viewBox="0 0 512 512">
      <path d="m248 348l-148-147c-5-5-5-12 0-17l19-20c5-4 13-4 17 0l120 119 120-119c4-4 12-4 17 0l20 20c4 5 4 12 0 17l-148 147c-5 5-13 5-17 0z"/>
    </symbol>
  
    <symbol id="icon-angle-left" viewBox="0 0 512 512">
      <path d="m164 248l147-148c5-5 12-5 17 0l20 19c5 5 5 13 0 17l-119 120 119 120c5 4 5 12 0 17l-20 20c-5 4-12 4-17 0l-147-148c-4-5-4-13 0-17z"/>
    </symbol>
  
    <symbol id="icon-angle-up" viewBox="0 0 512 512">
      <path d="m265 164l148 147c4 5 4 12 0 17l-20 20c-5 5-13 5-17 0l-120-119-120 119c-4 5-12 5-17 0l-19-20c-5-5-5-12 0-17l148-147c4-4 12-4 17 0z"/>
    </symbol>
  
    <symbol id="icon-angle-right" viewBox="0 0 512 512">
      <path d="m348 265l-147 148c-5 4-12 4-17 0l-20-20c-4-5-4-13 0-17l119-120-119-120c-4-4-4-12 0-17l20-19c5-5 12-5 17 0l147 148c5 4 5 12 0 17z"/>
    </symbol>
  
    <symbol id="icon-caret-down" viewBox="0 0 512 512">
      <path d="m127 192l258 0c17 0 26 22 14 34l-129 129c-8 8-20 8-28 0l-129-129c-12-12-3-34 14-34z"/>
    </symbol>
  
    <symbol id="icon-caret-left" viewBox="0 0 512 512">
      <path d="m352 127l0 258c0 17-22 26-34 14l-129-129c-8-8-8-20 0-28l129-129c12-12 34-3 34 14z"/>
    </symbol>
  
    <symbol id="icon-caret-right" viewBox="0 0 512 512">
      <path d="m160 385l0-258c0-17 22-26 34-14l129 129c8 8 8 20 0 28l-129 129c-12 12-34 3-34-14z"/>
    </symbol>
  
    <symbol id="icon-caret-up" viewBox="0 0 512 512">
      <path d="m385 352l-258 0c-17 0-26-22-14-34l129-129c8-8 20-8 28 0l129 129c12 12 3 34-14 34z"/>
    </symbol>
  
    <symbol id="icon-check-light" viewBox="0 0 512 512">
      <path d="m446 92l-281 280-99-99c-4-5-12-5-16 0l-12 11c-4 5-4 13 0 17l119 119c5 5 12 5 17 0l300-300c4-4 4-12 0-17l-12-11c-4-5-12-5-16 0z"/>
    </symbol>
  
    <symbol id="icon-check-solid" viewBox="0 0 512 512">
      <path d="m174 439l-167-166c-10-10-10-26 0-36l37-36c10-10 26-10 36 0l112 112 240-240c10-10 26-10 36 0l37 36c10 10 10 26 0 36l-295 294c-10 10-26 10-36 0z"/>
    </symbol>

    <symbol id="icon-check" viewBox="0 0 512 512">
      <path d="m174 439l-167-166c-10-10-10-26 0-36l37-36c10-10 26-10 36 0l112 112 240-240c10-10 26-10 36 0l37 36c10 10 10 26 0 36l-295 294c-10 10-26 10-36 0z"/>
    </symbol>
  
    <symbol id="icon-check-regular" viewBox="0 0 512 512">
      <path d="m436 83l-263 264-97-97c-5-5-12-5-17 0l-28 28c-5 5-5 12 0 17l133 134c5 4 13 4 17 0l300-300c5-5 5-13 0-17l-28-29c-5-4-12-4-17 0z"/>
    </symbol>

    <symbol id="icon-check-circle" viewBox="0 0 512 512">
        <path d="M256 8C119.033 8 8 119.033 8 256s111.033 248 248 248 248-111.033 248-248S392.967 8 256 8zm0 48c110.532 0 200 89.451 200 200 0 110.532-89.451 200-200 200-110.532 0-200-89.451-200-200 0-110.532 89.451-200 200-200m140.204 130.267l-22.536-22.718c-4.667-4.705-12.265-4.736-16.97-.068L215.346 303.697l-59.792-60.277c-4.667-4.705-12.265-4.736-16.97-.069l-22.719 22.536c-4.705 4.667-4.736 12.265-.068 16.971l90.781 91.516c4.667 4.705 12.265 4.736 16.97.068l172.589-171.204c4.704-4.668 4.734-12.266.067-16.971z"></path>
    </symbol>
  
    <symbol id="icon-plus" viewBox="0 0 512 512">
      <path d="m432 224l-144 0 0-144c0-9-7-16-16-16l-32 0c-9 0-16 7-16 16l0 144-144 0c-9 0-16 7-16 16l0 32c0 9 7 16 16 16l144 0 0 144c0 9 7 16 16 16l32 0c9 0 16-7 16-16l0-144 144 0c9 0 16-7 16-16l0-32c0-9-7-16-16-16z"/>
    </symbol>

    <symbol id="icon-pound" viewBox="0 0 320 512">
      <path d="M308 352h-45.495c-6.627 0-12 5.373-12 12v50.848H128V288h84c6.627 0 12-5.373 12-12v-40c0-6.627-5.373-12-12-12h-84v-63.556c0-32.266 24.562-57.086 61.792-57.086 23.658 0 45.878 11.505 57.652 18.849 5.151 3.213 11.888 2.051 15.688-2.685l28.493-35.513c4.233-5.276 3.279-13.005-2.119-17.081C273.124 54.56 236.576 32 187.931 32 106.026 32 48 84.742 48 157.961V224H20c-6.627 0-12 5.373-12 12v40c0 6.627 5.373 12 12 12h28v128H12c-6.627 0-12 5.373-12 12v40c0 6.627 5.373 12 12 12h296c6.627 0 12-5.373 12-12V364c0-6.627-5.373-12-12-12z"></path>
    </symbol>
  
    <symbol id="icon-info-circle" viewBox="0 0 512 512">
      <path d="m256 8c-137 0-248 111-248 248 0 137 111 248 248 248 137 0 248-111 248-248 0-137-111-248-248-248z m0 448c-111 0-200-89-200-200 0-110 89-200 200-200 110 0 200 89 200 200 0 111-89 200-200 200z m0-338c23 0 42 19 42 42 0 23-19 42-42 42-23 0-42-19-42-42 0-23 19-42 42-42z m56 254c0 7-5 12-12 12l-88 0c-7 0-12-5-12-12l0-24c0-7 5-12 12-12l12 0 0-64-12 0c-7 0-12-5-12-12l0-24c0-7 5-12 12-12l64 0c7 0 12 5 12 12l0 100 12 0c7 0 12 5 12 12z"/>
    </symbol>
  
    <symbol id="icon-info-circle-1" viewBox="0 0 512 512">
      <path d="m256 8c-137 0-248 111-248 248 0 137 111 248 248 248 137 0 248-111 248-248 0-137-111-248-248-248z m0 110c23 0 42 19 42 42 0 23-19 42-42 42-23 0-42-19-42-42 0-23 19-42 42-42z m56 254c0 7-5 12-12 12l-88 0c-7 0-12-5-12-12l0-24c0-7 5-12 12-12l12 0 0-64-12 0c-7 0-12-5-12-12l0-24c0-7 5-12 12-12l64 0c7 0 12 5 12 12l0 100 12 0c7 0 12 5 12 12z"/>
    </symbol>
  
    <symbol id="icon-question-circle" viewBox="0 0 512 512">
      <path d="m504 256c0 137-111 248-248 248-137 0-248-111-248-248 0-137 111-248 248-248 137 0 248 111 248 248z m-241-166c-55 0-90 23-117 64-3 5-2 12 3 16l35 26c5 4 12 3 16-2 18-22 30-36 57-36 21 0 46 14 46 33 0 15-12 23-32 34-24 14-55 30-55 71l0 4c0 7 5 12 12 12l56 0c7 0 12-5 12-12l0-1c0-29 83-30 83-107 0-58-60-102-116-102z m-7 248c-25 0-46 21-46 46 0 25 21 46 46 46 25 0 46-21 46-46 0-25-21-46-46-46z"/>
    </symbol>
  
    <symbol id="icon-question-circle-1" viewBox="0 0 512 512">
      <path d="m256 8c-137 0-248 111-248 248 0 137 111 248 248 248 137 0 248-111 248-248 0-137-111-248-248-248z m0 448c-111 0-200-89-200-200 0-110 89-200 200-200 110 0 200 89 200 200 0 111-89 200-200 200z m107-255c0 67-72 68-72 93l0 6c0 7-6 12-12 12l-46 0c-6 0-12-5-12-12l0-9c0-35 27-50 48-61 17-10 28-17 28-30 0-17-22-28-40-28-23 0-34 11-49 30-4 5-11 6-16 2l-28-21c-5-4-6-12-3-17 24-35 54-54 101-54 49 0 101 38 101 89z m-65 167c0 23-19 42-42 42-23 0-42-19-42-42 0-23 19-42 42-42 23 0 42 19 42 42z"/>
    </symbol>
  
    <symbol id="icon-map-marker-alt" viewBox="0 0 512 512">
      <path d="m236 502c-145-211-172-233-172-310 0-106 86-192 192-192 106 0 192 86 192 192 0 77-27 99-172 310-10 13-30 13-40 0z m20-230c44 0 80-36 80-80 0-44-36-80-80-80-44 0-80 36-80 80 0 44 36 80 80 80z"/>
    </symbol>
  
    <symbol id="icon-envelope" viewBox="0 0 512 512">
      <path d="m502 191c4-3 10 0 10 5l0 204c0 27-21 48-48 48l-416 0c-26 0-48-21-48-48l0-204c0-5 6-8 10-5 22 17 52 39 154 114 21 15 57 47 92 47 36 3 72-33 92-47 102-75 132-97 154-114z m-246 129c23 4 57-29 73-41 133-97 143-105 174-129 6-5 9-12 9-19l0-19c0-26-21-48-48-48l-416 0c-26 0-48 22-48 48l0 19c0 7 3 14 9 19 31 24 41 32 174 129 16 12 50 41 73 41z"/>
    </symbol>
  
    <symbol viewBox="0 0 512 512" id="icon-search">
        <path d="M500.3 443.7l-119.7-119.7c27.22-40.41 40.65-90.9 33.46-144.7C401.8 87.79 326.8 13.32 235.2 1.723C99.01-15.51-15.51 99.01 1.724 235.2c11.6 91.64 86.08 166.7 177.6 178.9c53.8 7.189 104.3-6.236 144.7-33.46l119.7 119.7c15.62 15.62 40.95 15.62 56.57 0C515.9 484.7 515.9 459.3 500.3 443.7zM79.1 208c0-70.58 57.42-128 128-128s128 57.42 128 128c0 70.58-57.42 128-128 128S79.1 278.6 79.1 208z"></path>
    </symbol>
  
    <symbol id="icon-times" viewBox="0 0 512 512">
      <path d="m323 256l100-100c12-12 12-32 0-45l-22-22c-13-12-33-12-45 0l-100 100-100-100c-12-12-32-12-45 0l-22 22c-12 13-12 33 0 45l100 100-100 100c-12 12-12 32 0 45l22 22c13 12 33 12 45 0l100-100 100 100c12 12 32 12 45 0l22-22c12-13 12-33 0-45z"/>
    </symbol>

    <symbol id="icon-file-pdf" viewBox="0 0 512 512">
      <path d="M369.9 97.9L286 14C277 5 264.8-.1 252.1-.1H48C21.5 0 0 21.5 0 48v416c0 26.5 21.5 48 48 48h288c26.5 0 48-21.5 48-48V131.9c0-12.7-5.1-25-14.1-34zm-22.6 22.7c2.1 2.1 3.5 4.6 4.2 7.4H256V32.5c2.8.7 5.3 2.1 7.4 4.2l83.9 83.9zM336 480H48c-8.8 0-16-7.2-16-16V48c0-8.8 7.2-16 16-16h176v104c0 13.3 10.7 24 24 24h104v304c0 8.8-7.2 16-16 16zm-22-171.2c-13.5-13.3-55-9.2-73.7-6.7-21.2-12.8-35.2-30.4-45.1-56.6 4.3-18 12-47.2 6.4-64.9-4.4-28.1-39.7-24.7-44.6-6.8-5 18.3-.3 44.4 8.4 77.8-11.9 28.4-29.7 66.9-42.1 88.6-20.8 10.7-54.1 29.3-58.8 52.4-3.5 16.8 22.9 39.4 53.1 6.4 9.1-9.9 19.3-24.8 31.3-45.5 26.7-8.8 56.1-19.8 82-24 21.9 12 47.6 19.9 64.6 19.9 27.7.1 28.9-30.2 18.5-40.6zm-229.2 89c5.9-15.9 28.6-34.4 35.5-40.8-22.1 35.3-35.5 41.5-35.5 40.8zM180 175.5c8.7 0 7.8 37.5 2.1 47.6-5.2-16.3-5-47.6-2.1-47.6zm-28.4 159.3c11.3-19.8 21-43.2 28.8-63.7 9.7 17.7 22.1 31.7 35.1 41.5-24.3 4.7-45.4 15.1-63.9 22.2zm153.4-5.9s-5.8 7-43.5-9.1c41-3 47.7 6.4 43.5 9.1z"></path>
    </symbol>

    <symbol id="icon-file" viewBox="0 0 384 512">
      <path d="M369.9 97.9L286 14C277 5 264.8-.1 252.1-.1H48C21.5 0 0 21.5 0 48v416c0 26.5 21.5 48 48 48h288c26.5 0 48-21.5 48-48V131.9c0-12.7-5.1-25-14.1-34zm-22.6 22.7c2.1 2.1 3.5 4.6 4.2 7.4H256V32.5c2.8.7 5.3 2.1 7.4 4.2l83.9 83.9zM336 480H48c-8.8 0-16-7.2-16-16V48c0-8.8 7.2-16 16-16h176v104c0 13.3 10.7 24 24 24h104v304c0 8.8-7.2 16-16 16z"></path>
    </symbol>

    <symbol id="icon-quote-right" viewBox="0 0 512 512">
      <path d="M176 32H64C28.7 32 0 60.7 0 96v128c0 35.3 28.7 64 64 64h64v24c0 30.9-25.1 56-56 56H56c-22.1 0-40 17.9-40 40v32c0 22.1 17.9 40 40 40h16c92.6 0 168-75.4 168-168V96c0-35.3-28.7-64-64-64zm32 280c0 75.1-60.9 136-136 136H56c-4.4 0-8-3.6-8-8v-32c0-4.4 3.6-8 8-8h16c48.6 0 88-39.4 88-88v-56H64c-17.7 0-32-14.3-32-32V96c0-17.7 14.3-32 32-32h112c17.7 0 32 14.3 32 32v216zM448 32H336c-35.3 0-64 28.7-64 64v128c0 35.3 28.7 64 64 64h64v24c0 30.9-25.1 56-56 56h-16c-22.1 0-40 17.9-40 40v32c0 22.1 17.9 40 40 40h16c92.6 0 168-75.4 168-168V96c0-35.3-28.7-64-64-64zm32 280c0 75.1-60.9 136-136 136h-16c-4.4 0-8-3.6-8-8v-32c0-4.4 3.6-8 8-8h16c48.6 0 88-39.4 88-88v-56h-96c-17.7 0-32-14.3-32-32V96c0-17.7 14.3-32 32-32h112c17.7 0 32 14.3 32 32v216z"></path>
    </symbol>

    <symbol id="icon-quote-left" viewBox="0 0 512 512">
      <path d="M448 224h-64v-24c0-30.9 25.1-56 56-56h16c22.1 0 40-17.9 40-40V72c0-22.1-17.9-40-40-40h-16c-92.6 0-168 75.4-168 168v216c0 35.3 28.7 64 64 64h112c35.3 0 64-28.7 64-64V288c0-35.3-28.7-64-64-64zm32 192c0 17.7-14.3 32-32 32H336c-17.7 0-32-14.3-32-32V200c0-75.1 60.9-136 136-136h16c4.4 0 8 3.6 8 8v32c0 4.4-3.6 8-8 8h-16c-48.6 0-88 39.4-88 88v56h96c17.7 0 32 14.3 32 32v128zM176 224h-64v-24c0-30.9 25.1-56 56-56h16c22.1 0 40-17.9 40-40V72c0-22.1-17.9-40-40-40h-16C75.4 32 0 107.4 0 200v216c0 35.3 28.7 64 64 64h112c35.3 0 64-28.7 64-64V288c0-35.3-28.7-64-64-64zm32 192c0 17.7-14.3 32-32 32H64c-17.7 0-32-14.3-32-32V200c0-75.1 60.9-136 136-136h16c4.4 0 8 3.6 8 8v32c0 4.4-3.6 8-8 8h-16c-48.6 0-88 39.4-88 88v56h96c17.7 0 32 14.3 32 32v128z"></path>
    </symbol>

    <symbol id="icon-twitter" viewBox="0 0 512 512">
      <path d="M459.37 151.716c.325 4.548.325 9.097.325 13.645 0 138.72-105.583 298.558-298.558 298.558-59.452 0-114.68-17.219-161.137-47.106 8.447.974 16.568 1.299 25.34 1.299 49.055 0 94.213-16.568 130.274-44.832-46.132-.975-84.792-31.188-98.112-72.772 6.498.974 12.995 1.624 19.818 1.624 9.421 0 18.843-1.3 27.614-3.573-48.081-9.747-84.143-51.98-84.143-102.985v-1.299c13.969 7.797 30.214 12.67 47.431 13.319-28.264-18.843-46.781-51.005-46.781-87.391 0-19.492 5.197-37.36 14.294-52.954 51.655 63.675 129.3 105.258 216.365 109.807-1.624-7.797-2.599-15.918-2.599-24.04 0-57.828 46.782-104.934 104.934-104.934 30.213 0 57.502 12.67 76.67 33.137 23.715-4.548 46.456-13.32 66.599-25.34-7.798 24.366-24.366 44.833-46.132 57.827 21.117-2.273 41.584-8.122 60.426-16.243-14.292 20.791-32.161 39.308-52.628 54.253z"></path>
    </symbol>

    <symbol id="icon-instagram" viewBox="0 0 448 512">
      <path d="M224.1 141c-63.6 0-114.9 51.3-114.9 114.9s51.3 114.9 114.9 114.9S339 319.5 339 255.9 287.7 141 224.1 141zm0 189.6c-41.1 0-74.7-33.5-74.7-74.7s33.5-74.7 74.7-74.7 74.7 33.5 74.7 74.7-33.6 74.7-74.7 74.7zm146.4-194.3c0 14.9-12 26.8-26.8 26.8-14.9 0-26.8-12-26.8-26.8s12-26.8 26.8-26.8 26.8 12 26.8 26.8zm76.1 27.2c-1.7-35.9-9.9-67.7-36.2-93.9-26.2-26.2-58-34.4-93.9-36.2-37-2.1-147.9-2.1-184.9 0-35.8 1.7-67.6 9.9-93.9 36.1s-34.4 58-36.2 93.9c-2.1 37-2.1 147.9 0 184.9 1.7 35.9 9.9 67.7 36.2 93.9s58 34.4 93.9 36.2c37 2.1 147.9 2.1 184.9 0 35.9-1.7 67.7-9.9 93.9-36.2 26.2-26.2 34.4-58 36.2-93.9 2.1-37 2.1-147.8 0-184.8zM398.8 388c-7.8 19.6-22.9 34.7-42.6 42.6-29.5 11.7-99.5 9-132.1 9s-102.7 2.6-132.1-9c-19.6-7.8-34.7-22.9-42.6-42.6-11.7-29.5-9-99.5-9-132.1s-2.6-102.7 9-132.1c7.8-19.6 22.9-34.7 42.6-42.6 29.5-11.7 99.5-9 132.1-9s102.7-2.6 132.1 9c19.6 7.8 34.7 22.9 42.6 42.6 11.7 29.5 9 99.5 9 132.1s2.7 102.7-9 132.1z"></path>
    </symbol>

    <symbol id="icon-container" viewBox="0 0 640 512">
      <path d="M632 64c4.4 0 8-3.6 8-8V40c0-4.4-3.6-8-8-8H8c-4.4 0-8 3.6-8 8v16c0 4.4 3.6 8 8 8h8v384H8c-4.4 0-8 3.6-8 8v16c0 4.4 3.6 8 8 8h624c4.4 0 8-3.6 8-8v-16c0-4.4-3.6-8-8-8h-8V64h8zm-40 384H48V64h544v384zm-472-64h16c4.4 0 8-3.6 8-8V136c0-4.4-3.6-8-8-8h-16c-4.4 0-8 3.6-8 8v240c0 4.4 3.6 8 8 8zm96 0h16c4.4 0 8-3.6 8-8V136c0-4.4-3.6-8-8-8h-16c-4.4 0-8 3.6-8 8v240c0 4.4 3.6 8 8 8zm96 0h16c4.4 0 8-3.6 8-8V136c0-4.4-3.6-8-8-8h-16c-4.4 0-8 3.6-8 8v240c0 4.4 3.6 8 8 8zm96 0h16c4.4 0 8-3.6 8-8V136c0-4.4-3.6-8-8-8h-16c-4.4 0-8 3.6-8 8v240c0 4.4 3.6 8 8 8zm96 0h16c4.4 0 8-3.6 8-8V136c0-4.4-3.6-8-8-8h-16c-4.4 0-8 3.6-8 8v240c0 4.4 3.6 8 8 8z"></path>
    </symbol>

    <symbol id="icon-truck" viewBox="0 0 640 512">
      <path d="M32 320h336c17.7 0 32-14.3 32-32V64c0-17.7-14.3-32-32-32H32C14.3 32 0 46.3 0 64v224c0 17.7 14.3 32 32 32zm0-256h336v224H32V64zm589.3 141.3l-58.5-58.5c-12-12-28.3-18.7-45.3-18.7H448c-8.8 0-16 7.2-16 16v208H228.7c-12.3-9.9-27.7-16-44.7-16-22.8 0-42.8 10.8-56 27.3-13.2-16.6-33.2-27.4-56-27.4-39.8 0-72 32.2-72 72s32.2 72 72 72c22.8 0 42.8-10.8 56-27.3 13.2 16.5 33.2 27.3 56 27.3 39.8 0 72-32.2 72-72 0-8.5-1.7-16.5-4.4-24h198c-2.7 13.2-2.2 27.6 2.8 42.4 8.4 25.1 29.9 44.9 55.6 51.1 52.8 12.8 100-26.9 100-77.6 0-5.5-.6-10.8-1.6-16H624c8.8 0 16-7.2 16-16V250.5c0-17-6.7-33.2-18.7-45.2zM72 448c-22.1 0-40-17.9-40-40s17.9-40 40-40 40 17.9 40 40-17.9 40-40 40zm112 0c-22.1 0-40-17.9-40-40s17.9-40 40-40 40 17.9 40 40-17.9 40-40 40zm280-288h53.5c8.5 0 16.6 3.3 22.6 9.4l54.6 54.6H464v-64zm64 288c-26.5 0-48-21.5-48-48s21.5-48 48-48 48 21.5 48 48-21.5 48-48 48zm80-96h-16.4c-14.6-19.3-37.5-32-63.6-32s-49 12.7-63.6 32h-.4v-96h144v96zm-504-96h16c4.4 0 8-3.6 8-8V104c0-4.4-3.6-8-8-8h-16c-4.4 0-8 3.6-8 8v144c0 4.4 3.6 8 8 8zm96 0h16c4.4 0 8-3.6 8-8V104c0-4.4-3.6-8-8-8h-16c-4.4 0-8 3.6-8 8v144c0 4.4 3.6 8 8 8zm96 0h16c4.4 0 8-3.6 8-8V104c0-4.4-3.6-8-8-8h-16c-4.4 0-8 3.6-8 8v144c0 4.4 3.6 8 8 8z"></path>
    </symbol>

    <symbol id="icon-recycle" viewBox="0 0 512 512">
      <path d="M201.728 62.049l-43.385 69.459c-3.511 5.622-10.916 7.332-16.537 3.819l-6.781-4.237c-5.619-3.511-7.329-10.912-3.819-16.533l43.387-69.48c37.575-60.12 125.263-60.084 162.816 0l46.217 74.015 12.037-52.14c1.491-6.458 7.934-10.484 14.392-8.993l7.794 1.799c6.458 1.491 10.484 7.934 8.993 14.392l-21.633 93.702c-1.491 6.458-7.934 10.484-14.392 8.993l-93.702-21.633c-6.458-1.491-10.484-7.934-8.993-14.392l1.799-7.794c1.491-6.458 7.934-10.484 14.392-8.993l52.202 12.052-46.251-74.047c-25.002-40.006-83.467-40.099-108.536.011zm295.56 239.071l-52.939-84.78c-3.511-5.623-10.916-7.334-16.538-3.821l-6.767 4.228c-5.62 3.512-7.329 10.913-3.819 16.534l52.966 84.798c26.605 42.568-4.054 97.92-54.272 97.92H310.627l37.858-37.858c4.686-4.686 4.686-12.284 0-16.97l-5.656-5.656c-4.686-4.686-12.284-4.686-16.97 0l-68 68c-4.686 4.686-4.686 12.284 0 16.971l68 68c4.686 4.686 12.284 4.686 16.97 0l5.656-5.657c4.686-4.686 4.686-12.284 0-16.971L310.627 448H415.88c75.274 0 121.335-82.997 81.408-146.88zM41.813 318.069l55.803-89.339 12.044 52.166c1.491 6.458 7.934 10.484 14.392 8.993l7.794-1.799c6.458-1.491 10.484-7.934 8.993-14.392l-21.633-93.702c-1.491-6.458-7.934-10.484-14.392-8.993l-93.702 21.633c-6.458 1.491-10.484 7.934-8.993 14.392l1.799 7.794c1.491 6.458 7.934 10.484 14.392 8.993l52.193-12.05-55.796 89.355C-25.188 364.952 20.781 448 96.115 448H196c6.627 0 12-5.373 12-12v-8c0-6.627-5.373-12-12-12H96.078c-50.199 0-80.887-55.335-54.265-97.931z"></path>
    </symbol>

    <symbol id="icon-star" viewBox="0 0 576 512">
      <path d="M259.3 17.8L194 150.2 47.9 171.5c-26.2 3.8-36.7 36.1-17.7 54.6l105.7 103-25 145.5c-4.5 26.3 23.2 46 46.4 33.7L288 439.6l130.7 68.7c23.2 12.2 50.9-7.4 46.4-33.7l-25-145.5 105.7-103c19-18.5 8.5-50.8-17.7-54.6L382 150.2 316.7 17.8c-11.7-23.6-45.6-23.9-57.4 0z"></path>
    </symbol>

    <symbol viewBox="0 0 50 43" id="icon-spin">
        <path fill-rule="evenodd" clip-rule="evenodd" d="M23.2422 0.0328525C17.9779 0.502986 13.2793 2.66002 9.56242 6.31303C5.68648 10.1224 3.48366 14.9647 3.16335 20.3796L3.09646 21.5093H1.54823H0L3.09216 26.076C4.79293 28.5877 6.21401 30.6428 6.25015 30.6428C6.28628 30.6428 7.70736 28.5877 9.40813 26.076L12.5003 21.5093H10.9237H9.34719L9.41594 20.5238C9.77092 15.4319 12.5593 10.9566 17.0361 8.29374C18.4912 7.42818 20.3015 6.7497 22.0969 6.39686C23.5542 6.11046 26.3207 6.092 27.7344 6.35927C29.8094 6.75144 31.9673 7.62931 33.763 8.81176C34.8096 9.501 36.4867 11.0438 37.2238 11.9953C37.5088 12.3632 37.7687 12.6643 37.8012 12.6643C37.8338 12.6643 38.6638 11.4762 39.6457 10.0243L41.4309 7.38424L41.0035 6.88161C40.3911 6.16141 38.7902 4.78062 37.6005 3.9464C34.8385 2.00972 31.9181 0.829003 28.4668 0.25369C27.3286 0.0640026 24.3187 -0.0632893 23.2422 0.0328525ZM40.5919 16.9426L37.4997 21.5093H39.0763H40.6528L40.5842 22.4904C40.2288 27.5704 37.4251 32.0756 32.9737 34.7197C31.4813 35.6062 29.5819 36.3063 27.6855 36.6689C26.332 36.9279 23.4317 36.9 22.0703 36.615C18.3281 35.8317 14.9293 33.7823 12.7637 31.0033C12.4855 30.6464 12.2313 30.3544 12.1988 30.3544C12.1662 30.3544 11.3349 31.5444 10.3513 32.9988L8.56292 35.6433L8.95374 36.0994C9.45256 36.6815 10.9785 38.0342 11.9404 38.747C14.7626 40.838 18.143 42.2313 21.8262 42.8215C23.3208 43.061 26.6669 43.0591 28.1738 42.818C34.5448 41.7984 39.753 38.5142 43.272 33.2973C45.3779 30.1754 46.605 26.5169 46.8329 22.6805L46.9025 21.5093H48.4513H50L46.9078 16.9426C45.2071 14.4309 43.786 12.3758 43.7499 12.3758C43.7137 12.3758 42.2926 14.4309 40.5919 16.9426Z" fill="current"></path>
    </symbol>

    <symbol viewBox="0 0 50 44" id="icon-sleep">
        <path fill-rule="evenodd" clip-rule="evenodd" d="M26.8505 0.0474705C23.8073 0.341653 20.8262 2.08324 19.1996 4.51728L18.8279 5.07334L17.392 5.07498C15.4125 5.07731 14.1333 5.3621 12.5361 6.15585C9.47841 7.67552 7.36008 10.5446 6.81672 13.9021C6.6511 14.9253 6.74715 17.0797 7.001 18.0363C7.81785 21.1149 9.79069 23.5215 12.6361 24.9104C13.9019 25.5283 15.2449 25.8738 16.6455 25.9418L17.7257 25.9943L18.1466 26.6665C18.7039 27.5571 20.1266 29.0176 21.0048 29.6011C24.8983 32.1874 29.6724 32.0905 33.3935 29.3497C35.0294 28.1448 36.4343 26.2237 37.059 24.3376L37.2307 23.8188L37.6833 23.875C40.1544 24.1821 42.0966 23.8916 44.0731 22.9193C47.2112 21.3755 49.2931 18.5722 49.8567 15.1316C50.0461 13.975 50.0477 12.9691 49.8619 11.9137C49.1164 7.68132 46.2327 4.51912 42.0931 3.39453C40.4794 2.95621 38.2359 2.94112 36.6998 3.35845L35.8499 3.58927L35.3319 3.05866C33.2239 0.899642 29.9735 -0.254451 26.8505 0.0474705ZM39.0039 10.8733C39.1389 10.9242 39.3166 11.0674 39.3988 11.1916C39.6888 11.6298 39.4733 11.9589 37.3867 14.2635L35.416 16.4401L37.4255 16.4885C39.2239 16.5318 39.4566 16.5562 39.6404 16.7212C39.9197 16.9717 39.9196 17.5532 39.6402 17.8037C39.4479 17.9761 39.2502 17.988 36.5868 17.988C35.0205 17.988 33.6189 17.9547 33.4721 17.9141C33.2146 17.8427 32.9085 17.4204 32.9085 17.1367C32.9085 16.8941 33.4182 16.2507 35.0832 14.3916C35.9837 13.386 36.7886 12.467 36.8719 12.3493L37.0233 12.1353L35.5278 12.1329C34.2229 12.1309 33.3779 12.0518 33.2437 11.9191C33.2216 11.8972 33.1763 11.7439 33.1429 11.5783C33.094 11.3368 33.1314 11.2285 33.3328 11.0292L33.5835 10.7809H36.1709C37.594 10.7809 38.8688 10.8225 39.0039 10.8733ZM21.9762 11.3624C22.2656 11.4162 22.5575 11.5334 22.6246 11.6227C22.7742 11.8218 22.7831 12.2743 22.6425 12.5343C22.5851 12.6403 21.6837 13.6684 20.6394 14.8188C19.5951 15.9692 18.7407 16.9461 18.7407 16.9897C18.7407 17.0332 19.6403 17.0689 20.7399 17.0689C22.6707 17.0689 22.7459 17.0762 22.9383 17.2807C23.192 17.5502 23.1936 17.9808 22.9421 18.2298C22.7554 18.4147 22.6165 18.4233 19.82 18.4233C17.8407 18.4233 16.8144 18.3877 16.6494 18.3132C16.3053 18.158 16.1672 17.7174 16.3401 17.3268C16.4147 17.1583 17.1235 16.3023 17.9153 15.4244C18.707 14.5465 19.5759 13.567 19.8458 13.2478L20.3368 12.6673L18.5175 12.619C17.5028 12.592 16.6558 12.5278 16.6026 12.4739C16.5501 12.4206 16.4796 12.2664 16.4459 12.1311C16.3718 11.8337 16.6806 11.3953 17.0083 11.3326C17.4656 11.2452 21.4745 11.2692 21.9762 11.3624ZM30.2603 17.0114C30.7014 17.407 30.5806 17.6236 28.8535 19.5343C27.9668 20.5153 27.2413 21.3414 27.2413 21.37C27.2413 21.3987 27.9834 21.4222 28.8905 21.4222C30.6201 21.4222 30.6633 21.4324 30.8008 21.8768C30.8466 22.0249 30.8058 22.1497 30.6661 22.2879C30.4748 22.4773 30.3557 22.4863 28.03 22.4863C25.3596 22.4863 25.2872 22.4711 25.2872 21.9126C25.2872 21.598 25.4491 21.3903 27.2169 19.436C27.929 18.6489 28.5116 17.9684 28.5116 17.9238C28.5116 17.8793 27.875 17.8429 27.097 17.8429C25.7064 17.8429 25.6799 17.8389 25.5267 17.6075C25.342 17.3283 25.4608 17.0163 25.8065 16.8726C25.9239 16.8237 26.9278 16.7935 28.0374 16.8054C29.8663 16.8251 30.074 16.8443 30.2603 17.0114ZM11.8663 28.1537C10.4989 28.4814 9.18314 29.4913 8.5366 30.7095C7.70382 32.2786 7.70372 33.8797 8.5365 35.4487C9.34318 36.9687 10.8949 37.978 12.6525 38.1262C15.6976 38.3829 18.3816 35.7256 18.1222 32.7107C17.8563 29.6186 14.8602 27.4361 11.8663 28.1537ZM3.33124 36.4275C1.25043 36.6883 -0.320149 38.7727 0.0558353 40.7744C0.216762 41.6307 0.589913 42.3551 1.14676 42.8922C3.0811 44.7575 6.17536 44.1921 7.33868 41.7606C7.62174 41.1689 7.65057 41.0235 7.64969 40.1895C7.64881 39.3931 7.61315 39.1952 7.38255 38.7059C7.01966 37.9362 6.62413 37.4667 5.98394 37.046C5.17452 36.5141 4.28859 36.3076 3.33124 36.4275Z" fill="current"></path>
    </symbol>

    <symbol viewBox="0 0 50 50" id="icon-box">
        <path fill-rule="evenodd" clip-rule="evenodd" d="M20.0887 2.45826C17.4181 3.812 11.9702 6.55342 7.98201 8.55027L0.730833 12.1809L5.1357 14.3985C7.55841 15.6182 9.59269 16.6174 9.65642 16.6187C9.74728 16.6207 27.9391 6.94138 32.2481 4.59842L33.1898 4.08635L29.1227 2.04474C26.8859 0.921918 25.0306 0.00178795 24.9999 2.15916e-06C24.9693 -0.00178363 22.7592 1.1044 20.0887 2.45826ZM29.176 13.6479C23.0929 16.91 17.8228 19.7372 17.4645 19.9304L16.8131 20.2817L20.9205 22.3402L25.0279 24.3987L37.0968 18.3225C43.7347 14.9806 49.1838 12.229 49.2058 12.2079C49.2439 12.1714 40.3242 7.67892 40.2646 7.70459C40.2489 7.71128 35.2591 10.3858 29.176 13.6479ZM5.57054e-05 25.5782L0.0030695 37.7718L12.1666 43.8811L24.3302 49.9905V37.7707V25.5508L20.2003 23.4854L16.0703 21.42V25.9672V30.5144L14.3111 28.7578L12.5517 27.0012H10.7405H8.92911L8.89997 22.3972L8.87084 17.7932L4.51766 15.5946C2.1234 14.3852 0.126856 13.3933 0.080757 13.3902C0.0346579 13.3871 -0.0016186 18.8716 5.57054e-05 25.5782ZM37.7525 19.4845L25.6697 25.5708V37.7854V50L37.8334 43.8859L49.9971 37.7718L50 25.5782C50.0015 18.8716 49.9652 13.3875 49.9191 13.3913C49.873 13.395 44.3982 16.137 37.7525 19.4845Z" fill="current"></path>
    </symbol>

    <symbol viewBox="0 0 50 47" id="icon-hammer">
        <path fill-rule="evenodd" clip-rule="evenodd" d="M27.775 0.146763C26.3437 0.438759 25.1644 0.9734 23.965 1.87412C23.5867 2.15822 22.4079 3.26139 21.3457 4.32551C19.6403 6.03393 19.4142 6.30014 19.4142 6.60066C19.4142 6.99557 19.8128 7.4575 20.1536 7.4575C20.2744 7.4575 20.6695 7.35754 21.0315 7.23537C22.5548 6.72104 24.5531 6.58193 26.0597 6.88508C27.8143 7.23821 29.9548 8.62264 30.2115 9.57039C30.4273 10.3673 30.2866 10.5819 28.1485 12.7184C26.371 14.4945 26.1875 14.7116 26.1875 15.0377C26.1875 15.368 26.4155 15.6241 28.9679 18.1618C31.5071 20.6864 31.7792 20.9261 32.1057 20.9261C32.4177 20.9261 32.6076 20.7847 33.595 19.8174C34.9241 18.5153 35.2116 18.3814 36.0425 18.6786L36.5664 18.8658L39.6728 15.7786L42.7793 12.6913L42.5748 12.2317C42.3197 11.6583 42.3923 11.1811 42.8152 10.652C43.4266 9.88701 43.5249 10.0246 39.4961 6.00699C37.5025 4.01889 35.5617 2.15906 35.1834 1.87412C33.9682 0.95888 32.59 0.356789 31.1158 0.0972023C30.2754 -0.0507423 28.6231 -0.0263303 27.775 0.146763ZM40.8203 16.9553C36.6718 21.08 36.3475 21.4285 36.3475 21.7621C36.3475 22.0861 36.5178 22.2923 38.0664 23.8421C40.0027 25.7801 40.4578 26.0836 41.4218 26.0798C42.4878 26.0756 42.6833 25.9264 46.2196 22.42C49.7969 18.8729 50 18.6117 50 17.559C50 16.5926 49.6967 16.1428 47.747 14.2172C46.1882 12.6775 45.9809 12.5082 45.655 12.5082C45.3194 12.5082 44.9689 12.8306 40.8203 16.9553ZM23.1922 19.3269L20.9926 21.5158L23.2935 23.8035L25.5944 26.0912L27.796 23.9042C29.0068 22.7014 29.9975 21.669 29.9975 21.6101C29.9975 21.4714 25.6373 17.1381 25.4977 17.1381C25.4395 17.1381 24.402 18.1231 23.1922 19.3269ZM17.615 22.6766C17.2083 22.8203 15.9754 23.9991 9.16998 30.7506C4.78711 35.0987 1.03183 38.9084 0.824923 39.2162C0.218287 40.1192 0.00799647 40.8217 0.000376479 41.9709C-0.00491518 42.774 0.0439798 43.1087 0.248767 43.6731C1.29779 46.5636 4.78245 47.8711 7.45506 46.377C8.26722 45.923 23.967 30.3529 24.3117 29.6597C24.6601 28.9588 24.6398 27.9753 24.2637 27.3448C23.9142 26.7589 20.1303 23.0176 19.6352 22.7684C19.1287 22.5135 18.1966 22.4711 17.615 22.6766Z" fill="current"></path>
    </symbol>

    <symbol viewBox="0 0 512 512" id="icon-heart">
        <path d="M0 190.9V185.1C0 115.2 50.52 55.58 119.4 44.1C164.1 36.51 211.4 51.37 244 84.02L256 96L267.1 84.02C300.6 51.37 347 36.51 392.6 44.1C461.5 55.58 512 115.2 512 185.1V190.9C512 232.4 494.8 272.1 464.4 300.4L283.7 469.1C276.2 476.1 266.3 480 256 480C245.7 480 235.8 476.1 228.3 469.1L47.59 300.4C17.23 272.1 .0003 232.4 .0003 190.9L0 190.9z"></path>
    </symbol>

    <symbol viewBox="0 0 576 512" id="icon-basket">
        <path d="M171.7 191.1H404.3L322.7 35.07C316.6 23.31 321.2 8.821 332.9 2.706C344.7-3.409 359.2 1.167 365.3 12.93L458.4 191.1H544C561.7 191.1 576 206.3 576 223.1C576 241.7 561.7 255.1 544 255.1L492.1 463.5C484.1 492 459.4 512 430 512H145.1C116.6 512 91 492 83.88 463.5L32 255.1C14.33 255.1 0 241.7 0 223.1C0 206.3 14.33 191.1 32 191.1H117.6L210.7 12.93C216.8 1.167 231.3-3.409 243.1 2.706C254.8 8.821 259.4 23.31 253.3 35.07L171.7 191.1zM191.1 303.1C191.1 295.1 184.8 287.1 175.1 287.1C167.2 287.1 159.1 295.1 159.1 303.1V399.1C159.1 408.8 167.2 415.1 175.1 415.1C184.8 415.1 191.1 408.8 191.1 399.1V303.1zM271.1 303.1V399.1C271.1 408.8 279.2 415.1 287.1 415.1C296.8 415.1 304 408.8 304 399.1V303.1C304 295.1 296.8 287.1 287.1 287.1C279.2 287.1 271.1 295.1 271.1 303.1zM416 303.1C416 295.1 408.8 287.1 400 287.1C391.2 287.1 384 295.1 384 303.1V399.1C384 408.8 391.2 415.1 400 415.1C408.8 415.1 416 408.8 416 399.1V303.1z"></path>
    </symbol>

    <symbol viewBox="0 0 448 512" id="icon-user">
        <path d="M224 256c70.7 0 128-57.31 128-128s-57.3-128-128-128C153.3 0 96 57.31 96 128S153.3 256 224 256zM274.7 304H173.3C77.61 304 0 381.6 0 477.3c0 19.14 15.52 34.67 34.66 34.67h378.7C432.5 512 448 496.5 448 477.3C448 381.6 370.4 304 274.7 304z"></path>
    </symbol>
  
</svg>
