<svg width="1792" height="836" viewBox="0 0 1792 836" fill="none" xmlns="http://www.w3.org/2000/svg">
<path d="M0 501.089H335.25V835.911H0V501.089ZM363.188 501.089H698.438V835.911H363.188V501.089ZM726.375 501.089H1061.62V835.911H726.375V501.089ZM1089.56 501.089H1424.81V835.911H1089.56V501.089ZM1452.75 501.089H1788V835.911H1452.75V501.089Z" fill="#00B67A"/>
<path d="M167.625 726.745L218.611 713.84L239.913 779.41L167.625 726.745ZM284.962 641.993H195.213L167.625 557.59L140.037 641.993H50.2875L122.925 694.309L95.3367 778.712L167.974 726.396L212.674 694.309L284.962 641.993ZM530.812 726.745L581.798 713.84L603.101 779.41L530.812 726.745ZM648.15 641.993H558.401L530.812 557.59L503.224 641.993H413.475L486.112 694.309L458.524 778.712L531.162 726.396L575.862 694.309L648.15 641.993ZM894 726.745L944.986 713.84L966.288 779.41L894 726.745ZM1011.34 641.993H921.588L894 557.59L866.412 641.993H776.662L849.3 694.309L821.712 778.712L894.349 726.396L939.049 694.309L1011.34 641.993ZM1257.19 726.745L1308.17 713.84L1329.48 779.41L1257.19 726.745ZM1374.52 641.993H1284.78L1257.19 557.59L1229.6 641.993H1139.85L1212.49 694.309L1184.9 778.712L1257.54 726.396L1302.24 694.309L1374.52 641.993ZM1620.37 726.745L1671.36 713.84L1692.66 779.41L1620.37 726.745ZM1737.71 641.993H1647.96L1620.37 557.59L1592.79 641.993H1503.04L1575.67 694.309L1548.09 778.712L1620.72 726.396L1665.42 694.309L1737.71 641.993Z" fill="white"/>
<path d="M478.834 154.864L658.914 154.864V188.388L588.009 188.388V377.369H549.145V188.388H478.537L478.834 154.864ZM651.201 216.275H684.428V247.426H685.022C686.208 242.975 688.285 238.822 691.252 234.669C694.219 230.515 697.779 226.658 702.229 223.395C706.382 219.835 711.129 217.165 716.469 215.088C721.513 213.011 726.853 211.825 732.193 211.825C736.346 211.825 739.313 212.121 740.796 212.121C742.28 212.418 744.06 212.715 745.543 212.715V246.832C743.17 246.239 740.5 245.942 737.83 245.646C735.16 245.349 732.786 245.052 730.116 245.052C724.183 245.052 718.546 246.239 713.206 248.612C707.866 250.986 703.415 254.546 699.262 258.996C695.405 263.743 692.142 269.379 689.768 276.203C687.395 283.026 686.208 291.037 686.208 299.937V376.479H650.608L651.201 216.275ZM908.714 377.369H873.706V354.821H873.113C868.663 363.128 862.136 369.358 853.532 374.402C844.929 379.445 836.029 381.819 827.128 381.819C806.064 381.819 790.637 376.775 781.144 366.095C771.65 355.711 766.904 339.691 766.904 318.627V216.275L802.504 216.275V315.067C802.504 329.308 805.174 339.394 810.811 345.031C816.151 350.965 823.865 353.931 833.655 353.931C841.072 353.931 847.302 352.745 852.346 350.371C857.389 347.998 861.542 345.031 864.509 341.174C867.773 337.318 869.849 332.571 871.333 327.231C872.816 321.891 873.409 315.957 873.409 309.727V216.275H909.01V377.369H908.714ZM969.235 325.747C970.422 336.131 974.278 343.251 981.102 347.701C987.925 351.855 996.232 353.931 1005.73 353.931C1008.99 353.931 1012.85 353.635 1017 353.041C1021.15 352.448 1025.31 351.558 1028.87 350.075C1032.72 348.591 1035.69 346.515 1038.06 343.548C1040.44 340.581 1041.62 337.021 1041.33 332.571C1041.03 328.121 1039.55 324.264 1036.28 321.297C1033.02 318.331 1029.16 316.254 1024.42 314.177C1019.67 312.397 1014.03 310.914 1007.8 309.727C1001.57 308.54 995.342 307.057 988.815 305.574C982.289 304.09 975.762 302.31 969.532 300.234C963.301 298.157 957.961 295.487 952.918 291.63C948.171 288.07 944.018 283.62 941.348 277.983C938.381 272.346 936.897 265.819 936.897 257.512C936.897 248.612 938.974 241.492 943.424 235.559C947.578 229.625 953.214 224.878 959.741 221.318C966.268 217.758 973.685 215.088 981.695 213.605C989.705 212.121 997.419 211.528 1004.54 211.528C1012.85 211.528 1020.86 212.418 1028.27 214.198C1035.69 215.978 1042.81 218.648 1048.74 222.802C1054.97 226.658 1060.02 231.999 1063.87 238.229C1068.03 244.459 1070.4 252.172 1071.59 261.073H1034.5C1032.72 252.469 1028.87 246.832 1022.93 243.866C1016.7 240.899 1009.88 239.415 1001.87 239.415C999.496 239.415 996.232 239.712 992.969 240.009C989.409 240.602 986.442 241.196 983.179 242.382C980.212 243.569 977.542 245.349 975.465 247.426C973.388 249.502 972.202 252.469 972.202 256.029C972.202 260.479 973.685 263.743 976.652 266.413C979.618 269.083 983.475 271.16 988.519 273.236C993.265 275.016 998.902 276.5 1005.13 277.686C1011.36 278.873 1017.89 280.356 1024.42 281.84C1030.94 283.323 1037.17 285.103 1043.4 287.18C1049.63 289.257 1055.27 291.927 1060.02 295.783C1064.76 299.344 1068.92 303.794 1071.88 309.134C1074.85 314.474 1076.33 321.297 1076.33 329.011C1076.33 338.504 1074.26 346.515 1069.81 353.338C1065.36 359.865 1059.72 365.502 1052.9 369.655C1046.07 373.809 1038.06 376.775 1029.76 378.852C1021.15 380.632 1012.85 381.819 1004.54 381.819C994.452 381.819 984.959 380.632 976.355 378.259C967.751 375.885 960.038 372.325 953.808 367.875C947.578 363.128 942.534 357.491 938.974 350.371C935.414 343.548 933.337 335.241 933.041 325.451H968.938V325.747H969.235ZM1086.42 216.275L1113.42 216.275V167.62H1149.02V215.978H1181.06V242.382H1149.02V328.418C1149.02 332.274 1149.32 335.241 1149.61 338.208C1149.91 340.878 1150.8 343.251 1151.69 345.031C1152.88 346.811 1154.66 348.295 1156.73 349.185C1159.11 350.075 1162.07 350.668 1166.23 350.668C1168.6 350.668 1171.27 350.668 1173.64 350.371C1176.02 350.075 1178.69 349.778 1181.06 349.185V376.775C1177.2 377.369 1173.35 377.665 1169.49 377.962C1165.63 378.555 1162.07 378.555 1157.92 378.555C1148.43 378.555 1141.01 377.665 1135.37 375.885C1129.74 374.105 1125.29 371.435 1122.02 368.172C1118.76 364.612 1116.68 360.458 1115.49 355.415C1114.31 350.371 1113.71 344.141 1113.42 337.614V242.679H1086.42V215.682V216.275ZM1205.98 216.275H1239.5V238.229H1240.1C1245.14 228.735 1251.96 222.208 1260.86 218.055C1269.77 213.902 1279.26 211.825 1289.94 211.825C1302.7 211.825 1313.67 213.902 1323.17 218.648C1332.66 223.098 1340.37 229.032 1346.6 237.042C1352.83 244.756 1357.58 253.952 1360.55 264.336C1363.51 274.72 1365.29 285.993 1365.29 297.563C1365.29 308.54 1363.81 318.924 1361.14 329.011C1358.17 339.098 1354.02 348.295 1348.38 356.008C1342.75 363.722 1335.63 369.952 1326.73 374.698C1317.83 379.445 1307.74 381.819 1295.87 381.819C1290.83 381.819 1285.49 381.225 1280.45 380.335C1275.4 379.445 1270.36 377.962 1265.61 375.885C1260.86 373.809 1256.41 371.138 1252.56 367.875C1248.4 364.612 1245.14 360.755 1242.47 356.601H1241.88V437H1206.28V216.275H1205.98ZM1330.29 296.97C1330.29 289.85 1329.4 282.73 1327.32 275.906C1325.54 269.083 1322.57 263.149 1318.72 257.809C1314.86 252.469 1310.11 248.316 1304.77 245.052C1299.14 241.789 1292.61 240.305 1285.49 240.305C1270.66 240.305 1259.38 245.349 1251.67 255.733C1244.25 266.116 1240.39 280.06 1240.39 297.267C1240.39 305.574 1241.28 312.99 1243.36 319.814C1245.44 326.637 1248.11 332.571 1252.26 337.614C1256.12 342.658 1260.86 346.515 1266.5 349.481C1272.14 352.448 1278.37 353.931 1285.79 353.931C1294.09 353.931 1300.62 352.151 1306.26 348.888C1311.89 345.625 1316.34 341.174 1320.2 336.131C1323.76 330.791 1326.43 324.857 1327.91 318.034C1329.4 310.914 1330.29 304.09 1330.29 296.97V296.97ZM1392.88 154.864H1428.49V188.388H1392.88V154.864ZM1392.88 216.275H1428.49V377.369H1392.88V216.275ZM1460.23 154.864H1495.83V377.369H1460.23V154.864ZM1604.41 381.819C1591.66 381.819 1580.09 379.742 1570 375.292C1559.91 370.842 1551.6 365.205 1544.48 357.788C1537.66 350.371 1532.32 341.174 1528.76 330.791C1525.2 320.407 1523.12 308.837 1523.12 296.673C1523.12 284.51 1524.9 273.236 1528.76 262.853C1532.32 252.469 1537.66 243.569 1544.48 235.855C1551.31 228.439 1559.91 222.505 1570 218.352C1580.09 214.198 1591.66 211.825 1604.41 211.825C1617.17 211.825 1628.74 213.902 1638.83 218.352C1648.91 222.505 1657.22 228.439 1664.34 235.855C1671.16 243.272 1676.5 252.469 1680.06 262.853C1683.62 273.236 1685.7 284.51 1685.7 296.673C1685.7 309.134 1683.92 320.407 1680.06 330.791C1676.21 341.174 1671.16 350.075 1664.34 357.788C1657.52 365.205 1648.91 371.138 1638.83 375.292C1628.74 379.445 1617.47 381.819 1604.41 381.819ZM1604.41 353.635C1612.13 353.635 1619.25 351.855 1624.88 348.591C1630.82 345.328 1635.27 340.878 1639.12 335.538C1642.98 330.198 1645.65 323.967 1647.43 317.441C1649.21 310.617 1650.1 303.794 1650.1 296.673C1650.1 289.85 1649.21 283.026 1647.43 276.203C1645.65 269.379 1642.98 263.446 1639.12 258.106C1635.27 252.766 1630.52 248.612 1624.88 245.349C1618.95 242.086 1612.13 240.305 1604.41 240.305C1596.7 240.305 1589.58 242.086 1583.94 245.349C1578.01 248.612 1573.56 253.062 1569.7 258.106C1565.85 263.446 1563.18 269.379 1561.4 276.203C1559.62 283.026 1558.73 289.85 1558.73 296.673C1558.73 303.794 1559.62 310.617 1561.4 317.441C1563.18 324.264 1565.85 330.198 1569.7 335.538C1573.56 340.878 1578.31 345.328 1583.94 348.591C1589.88 352.151 1596.7 353.635 1604.41 353.635ZM1696.38 216.275H1723.38V167.62L1758.98 167.62V215.978H1791.02V242.382H1758.98V328.418C1758.98 332.274 1759.28 335.241 1759.57 338.208C1759.87 340.878 1760.76 343.251 1761.65 345.031C1762.84 346.811 1764.62 348.295 1766.69 349.185C1769.07 350.075 1772.03 350.668 1776.19 350.668C1778.56 350.668 1781.23 350.668 1783.6 350.371C1785.98 350.075 1788.65 349.778 1791.02 349.185V376.775C1787.16 377.369 1783.31 377.665 1779.45 377.962C1775.59 378.555 1772.03 378.555 1767.88 378.555C1758.39 378.555 1750.97 377.665 1745.33 375.885C1739.7 374.105 1735.25 371.435 1731.98 368.172C1728.72 364.612 1726.64 360.458 1725.46 355.415C1724.27 350.371 1723.68 344.141 1723.38 337.614V242.679L1696.38 242.679V215.682V216.275Z" fill="black"/>
<path d="M437.299 154.864L274.426 154.864L224.288 0L173.853 154.864L10.9795 154.567L142.703 250.392L92.268 405.256L223.991 309.43L355.714 405.256L305.576 250.392L437.299 154.864Z" fill="#00B67A"/>
<path d="M316.85 285.4L305.576 250.392L224.288 309.43L316.85 285.4Z" fill="#005128"/>
</svg>
